STARTFONT 2.1
COMMENT 8x16 roman/kana font
COMMENT from SHARP X680x0 ROMFONT
FONT -PEKE-Fixed-Medium-R-Normal--16-150-75-75-C-80-JISX0201.1976-0
SIZE 6 78 78
FONTBOUNDINGBOX 8 16 0 -2
STARTPROPERTIES 19
FONT_ASCENT 14
FONT_DESCENT 2
DEFAULT_CHAR 32
COPYRIGHT "from SHARP X680x0 ROMFONT"
FONTNAME_REGISTRY ""
FOUNDRY "PEKE"
FAMILY_NAME "Fixed"
WEIGHT_NAME "Medium"
SLANT "R"
SETWIDTH_NAME "Normal"
ADD_STYLE_NAME ""
PIXEL_SIZE 16
POINT_SIZE 150
RESOLUTION_X 75
RESOLUTION_Y 75
SPACING "C"
AVERAGE_WIDTH 80
CHARSET_REGISTRY "JISX0201.1976"
CHARSET_ENCODING "0"
ENDPROPERTIES
CHARS 160
STARTCHAR 20
ENCODING    32
SWIDTH 480 0
DWIDTH 8 0
BBX 8 16 0 -2
BITMAP
00
00
00
00
00
00
00
00
00
00
00
00
00
00
00
00
ENDCHAR
STARTCHAR 21
ENCODING    33
SWIDTH 480 0
DWIDTH 8 0
BBX 8 16 0 -2
BITMAP
00
10
10
10
10
10
10
10
10
10
00
00
10
10
00
00
ENDCHAR
STARTCHAR 22
ENCODING    34
SWIDTH 480 0
DWIDTH 8 0
BBX 8 16 0 -2
BITMAP
00
6c
6c
24
48
00
00
00
00
00
00
00
00
00
00
00
ENDCHAR
STARTCHAR 23
ENCODING    35
SWIDTH 480 0
DWIDTH 8 0
BBX 8 16 0 -2
BITMAP
00
44
44
fe
44
44
44
44
44
44
fe
44
44
44
00
00
ENDCHAR
STARTCHAR 24
ENCODING    36
SWIDTH 480 0
DWIDTH 8 0
BBX 8 16 0 -2
BITMAP
00
10
10
7c
92
90
90
7c
12
12
92
7c
10
10
00
00
ENDCHAR
STARTCHAR 25
ENCODING    37
SWIDTH 480 0
DWIDTH 8 0
BBX 8 16 0 -2
BITMAP
00
00
60
90
92
64
08
10
20
4c
92
12
0c
00
00
00
ENDCHAR
STARTCHAR 26
ENCODING    38
SWIDTH 480 0
DWIDTH 8 0
BBX 8 16 0 -2
BITMAP
00
00
70
88
88
88
50
20
50
8a
84
8c
72
00
00
00
ENDCHAR
STARTCHAR 27
ENCODING    39
SWIDTH 480 0
DWIDTH 8 0
BBX 8 16 0 -2
BITMAP
00
30
30
10
20
00
00
00
00
00
00
00
00
00
00
00
ENDCHAR
STARTCHAR 28
ENCODING    40
SWIDTH 480 0
DWIDTH 8 0
BBX 8 16 0 -2
BITMAP
00
04
08
10
10
20
20
20
20
20
10
10
08
04
00
00
ENDCHAR
STARTCHAR 29
ENCODING    41
SWIDTH 480 0
DWIDTH 8 0
BBX 8 16 0 -2
BITMAP
00
40
20
10
10
08
08
08
08
08
10
10
20
40
00
00
ENDCHAR
STARTCHAR 2a
ENCODING    42
SWIDTH 480 0
DWIDTH 8 0
BBX 8 16 0 -2
BITMAP
00
00
00
00
10
54
38
10
38
54
10
00
00
00
00
00
ENDCHAR
STARTCHAR 2b
ENCODING    43
SWIDTH 480 0
DWIDTH 8 0
BBX 8 16 0 -2
BITMAP
00
00
00
10
10
10
10
fe
10
10
10
10
00
00
00
00
ENDCHAR
STARTCHAR 2c
ENCODING    44
SWIDTH 480 0
DWIDTH 8 0
BBX 8 16 0 -2
BITMAP
00
00
00
00
00
00
00
00
00
00
30
30
10
10
20
00
ENDCHAR
STARTCHAR 2d
ENCODING    45
SWIDTH 480 0
DWIDTH 8 0
BBX 8 16 0 -2
BITMAP
00
00
00
00
00
00
00
fe
00
00
00
00
00
00
00
00
ENDCHAR
STARTCHAR 2e
ENCODING    46
SWIDTH 480 0
DWIDTH 8 0
BBX 8 16 0 -2
BITMAP
00
00
00
00
00
00
00
00
00
00
00
00
30
30
00
00
ENDCHAR
STARTCHAR 2f
ENCODING    47
SWIDTH 480 0
DWIDTH 8 0
BBX 8 16 0 -2
BITMAP
00
00
00
04
04
08
08
10
10
20
20
40
40
00
00
00
ENDCHAR
STARTCHAR 30
ENCODING    48
SWIDTH 480 0
DWIDTH 8 0
BBX 8 16 0 -2
BITMAP
00
3c
42
42
46
46
4a
4a
52
52
62
42
42
3c
00
00
ENDCHAR
STARTCHAR 31
ENCODING    49
SWIDTH 480 0
DWIDTH 8 0
BBX 8 16 0 -2
BITMAP
00
10
30
50
10
10
10
10
10
10
10
10
10
7c
00
00
ENDCHAR
STARTCHAR 32
ENCODING    50
SWIDTH 480 0
DWIDTH 8 0
BBX 8 16 0 -2
BITMAP
00
38
44
82
82
82
04
08
10
20
40
80
80
fe
00
00
ENDCHAR
STARTCHAR 33
ENCODING    51
SWIDTH 480 0
DWIDTH 8 0
BBX 8 16 0 -2
BITMAP
00
7c
04
08
10
20
78
04
02
02
02
82
44
38
00
00
ENDCHAR
STARTCHAR 34
ENCODING    52
SWIDTH 480 0
DWIDTH 8 0
BBX 8 16 0 -2
BITMAP
00
08
08
18
18
28
28
48
48
88
fe
08
08
08
00
00
ENDCHAR
STARTCHAR 35
ENCODING    53
SWIDTH 480 0
DWIDTH 8 0
BBX 8 16 0 -2
BITMAP
00
fe
80
80
80
b8
c4
02
02
02
02
82
44
38
00
00
ENDCHAR
STARTCHAR 36
ENCODING    54
SWIDTH 480 0
DWIDTH 8 0
BBX 8 16 0 -2
BITMAP
00
38
44
82
80
80
b8
c4
82
82
82
82
44
38
00
00
ENDCHAR
STARTCHAR 37
ENCODING    55
SWIDTH 480 0
DWIDTH 8 0
BBX 8 16 0 -2
BITMAP
00
fe
82
82
02
04
08
08
10
10
10
10
10
10
00
00
ENDCHAR
STARTCHAR 38
ENCODING    56
SWIDTH 480 0
DWIDTH 8 0
BBX 8 16 0 -2
BITMAP
00
38
44
82
82
82
44
38
44
82
82
82
44
38
00
00
ENDCHAR
STARTCHAR 39
ENCODING    57
SWIDTH 480 0
DWIDTH 8 0
BBX 8 16 0 -2
BITMAP
00
38
44
82
82
82
82
46
3a
02
02
82
44
38
00
00
ENDCHAR
STARTCHAR 3a
ENCODING    58
SWIDTH 480 0
DWIDTH 8 0
BBX 8 16 0 -2
BITMAP
00
00
00
00
30
30
00
00
00
00
30
30
00
00
00
00
ENDCHAR
STARTCHAR 3b
ENCODING    59
SWIDTH 480 0
DWIDTH 8 0
BBX 8 16 0 -2
BITMAP
00
00
00
00
30
30
00
00
00
00
30
30
10
10
20
00
ENDCHAR
STARTCHAR 3c
ENCODING    60
SWIDTH 480 0
DWIDTH 8 0
BBX 8 16 0 -2
BITMAP
00
00
02
04
08
10
20
40
20
10
08
04
02
00
00
00
ENDCHAR
STARTCHAR 3d
ENCODING    61
SWIDTH 480 0
DWIDTH 8 0
BBX 8 16 0 -2
BITMAP
00
00
00
00
00
00
fe
00
00
fe
00
00
00
00
00
00
ENDCHAR
STARTCHAR 3e
ENCODING    62
SWIDTH 480 0
DWIDTH 8 0
BBX 8 16 0 -2
BITMAP
00
00
40
20
10
08
04
02
04
08
10
20
40
00
00
00
ENDCHAR
STARTCHAR 3f
ENCODING    63
SWIDTH 480 0
DWIDTH 8 0
BBX 8 16 0 -2
BITMAP
00
38
44
82
82
02
04
08
10
10
00
00
10
10
00
00
ENDCHAR
STARTCHAR 40
ENCODING    64
SWIDTH 480 0
DWIDTH 8 0
BBX 8 16 0 -2
BITMAP
00
38
44
82
92
aa
aa
aa
aa
aa
94
80
40
3c
00
00
ENDCHAR
STARTCHAR 41
ENCODING    65
SWIDTH 480 0
DWIDTH 8 0
BBX 8 16 0 -2
BITMAP
00
10
28
44
82
82
82
82
fe
82
82
82
82
82
00
00
ENDCHAR
STARTCHAR 42
ENCODING    66
SWIDTH 480 0
DWIDTH 8 0
BBX 8 16 0 -2
BITMAP
00
f8
44
42
42
42
44
78
44
42
42
42
44
f8
00
00
ENDCHAR
STARTCHAR 43
ENCODING    67
SWIDTH 480 0
DWIDTH 8 0
BBX 8 16 0 -2
BITMAP
00
38
44
82
80
80
80
80
80
80
80
82
44
38
00
00
ENDCHAR
STARTCHAR 44
ENCODING    68
SWIDTH 480 0
DWIDTH 8 0
BBX 8 16 0 -2
BITMAP
00
f8
44
42
42
42
42
42
42
42
42
42
44
f8
00
00
ENDCHAR
STARTCHAR 45
ENCODING    69
SWIDTH 480 0
DWIDTH 8 0
BBX 8 16 0 -2
BITMAP
00
7e
40
40
40
40
40
7c
40
40
40
40
40
7e
00
00
ENDCHAR
STARTCHAR 46
ENCODING    70
SWIDTH 480 0
DWIDTH 8 0
BBX 8 16 0 -2
BITMAP
00
7e
40
40
40
40
40
7c
40
40
40
40
40
40
00
00
ENDCHAR
STARTCHAR 47
ENCODING    71
SWIDTH 480 0
DWIDTH 8 0
BBX 8 16 0 -2
BITMAP
00
38
44
82
80
80
80
80
8e
82
82
82
46
3a
00
00
ENDCHAR
STARTCHAR 48
ENCODING    72
SWIDTH 480 0
DWIDTH 8 0
BBX 8 16 0 -2
BITMAP
00
82
82
82
82
82
82
fe
82
82
82
82
82
82
00
00
ENDCHAR
STARTCHAR 49
ENCODING    73
SWIDTH 480 0
DWIDTH 8 0
BBX 8 16 0 -2
BITMAP
00
38
10
10
10
10
10
10
10
10
10
10
10
38
00
00
ENDCHAR
STARTCHAR 4a
ENCODING    74
SWIDTH 480 0
DWIDTH 8 0
BBX 8 16 0 -2
BITMAP
00
1c
08
08
08
08
08
08
08
08
08
88
88
70
00
00
ENDCHAR
STARTCHAR 4b
ENCODING    75
SWIDTH 480 0
DWIDTH 8 0
BBX 8 16 0 -2
BITMAP
00
42
42
44
44
48
48
70
48
48
44
44
42
42
00
00
ENDCHAR
STARTCHAR 4c
ENCODING    76
SWIDTH 480 0
DWIDTH 8 0
BBX 8 16 0 -2
BITMAP
00
80
80
80
80
80
80
80
80
80
80
80
80
fe
00
00
ENDCHAR
STARTCHAR 4d
ENCODING    77
SWIDTH 480 0
DWIDTH 8 0
BBX 8 16 0 -2
BITMAP
00
82
c6
c6
aa
aa
92
92
92
82
82
82
82
82
00
00
ENDCHAR
STARTCHAR 4e
ENCODING    78
SWIDTH 480 0
DWIDTH 8 0
BBX 8 16 0 -2
BITMAP
00
82
82
c2
a2
a2
92
92
8a
8a
86
86
82
82
00
00
ENDCHAR
STARTCHAR 4f
ENCODING    79
SWIDTH 480 0
DWIDTH 8 0
BBX 8 16 0 -2
BITMAP
00
38
44
82
82
82
82
82
82
82
82
82
44
38
00
00
ENDCHAR
STARTCHAR 50
ENCODING    80
SWIDTH 480 0
DWIDTH 8 0
BBX 8 16 0 -2
BITMAP
00
f8
84
82
82
82
84
f8
80
80
80
80
80
80
00
00
ENDCHAR
STARTCHAR 51
ENCODING    81
SWIDTH 480 0
DWIDTH 8 0
BBX 8 16 0 -2
BITMAP
00
38
44
82
82
82
82
82
82
82
ba
c6
44
3a
00
00
ENDCHAR
STARTCHAR 52
ENCODING    82
SWIDTH 480 0
DWIDTH 8 0
BBX 8 16 0 -2
BITMAP
00
f8
84
82
82
82
84
f8
88
88
84
84
82
82
00
00
ENDCHAR
STARTCHAR 53
ENCODING    83
SWIDTH 480 0
DWIDTH 8 0
BBX 8 16 0 -2
BITMAP
00
38
44
82
80
80
40
38
04
02
02
82
44
38
00
00
ENDCHAR
STARTCHAR 54
ENCODING    84
SWIDTH 480 0
DWIDTH 8 0
BBX 8 16 0 -2
BITMAP
00
fe
10
10
10
10
10
10
10
10
10
10
10
10
00
00
ENDCHAR
STARTCHAR 55
ENCODING    85
SWIDTH 480 0
DWIDTH 8 0
BBX 8 16 0 -2
BITMAP
00
82
82
82
82
82
82
82
82
82
82
82
82
7c
00
00
ENDCHAR
STARTCHAR 56
ENCODING    86
SWIDTH 480 0
DWIDTH 8 0
BBX 8 16 0 -2
BITMAP
00
82
82
82
82
82
82
82
44
44
28
28
10
10
00
00
ENDCHAR
STARTCHAR 57
ENCODING    87
SWIDTH 480 0
DWIDTH 8 0
BBX 8 16 0 -2
BITMAP
00
82
82
82
82
82
82
92
92
92
aa
aa
44
44
00
00
ENDCHAR
STARTCHAR 58
ENCODING    88
SWIDTH 480 0
DWIDTH 8 0
BBX 8 16 0 -2
BITMAP
00
82
82
44
44
28
28
10
28
28
44
44
82
82
00
00
ENDCHAR
STARTCHAR 59
ENCODING    89
SWIDTH 480 0
DWIDTH 8 0
BBX 8 16 0 -2
BITMAP
00
82
82
82
82
44
28
10
10
10
10
10
10
10
00
00
ENDCHAR
STARTCHAR 5a
ENCODING    90
SWIDTH 480 0
DWIDTH 8 0
BBX 8 16 0 -2
BITMAP
00
fe
02
04
04
08
08
10
20
20
40
40
80
fe
00
00
ENDCHAR
STARTCHAR 5b
ENCODING    91
SWIDTH 480 0
DWIDTH 8 0
BBX 8 16 0 -2
BITMAP
00
3c
20
20
20
20
20
20
20
20
20
20
20
3c
00
00
ENDCHAR
STARTCHAR 5c
ENCODING    92
SWIDTH 480 0
DWIDTH 8 0
BBX 8 16 0 -2
BITMAP
00
82
44
28
10
fe
10
10
10
fe
10
10
10
10
00
00
ENDCHAR
STARTCHAR 5d
ENCODING    93
SWIDTH 480 0
DWIDTH 8 0
BBX 8 16 0 -2
BITMAP
00
78
08
08
08
08
08
08
08
08
08
08
08
78
00
00
ENDCHAR
STARTCHAR 5e
ENCODING    94
SWIDTH 480 0
DWIDTH 8 0
BBX 8 16 0 -2
BITMAP
00
10
28
44
82
00
00
00
00
00
00
00
00
00
00
00
ENDCHAR
STARTCHAR 5f
ENCODING    95
SWIDTH 480 0
DWIDTH 8 0
BBX 8 16 0 -2
BITMAP
00
00
00
00
00
00
00
00
00
00
00
00
00
fe
00
00
ENDCHAR
STARTCHAR 60
ENCODING    96
SWIDTH 480 0
DWIDTH 8 0
BBX 8 16 0 -2
BITMAP
00
40
20
10
00
00
00
00
00
00
00
00
00
00
00
00
ENDCHAR
STARTCHAR 61
ENCODING    97
SWIDTH 480 0
DWIDTH 8 0
BBX 8 16 0 -2
BITMAP
00
00
00
00
00
00
78
84
04
74
8c
84
8c
72
00
00
ENDCHAR
STARTCHAR 62
ENCODING    98
SWIDTH 480 0
DWIDTH 8 0
BBX 8 16 0 -2
BITMAP
00
40
40
40
40
40
58
64
42
42
42
42
64
58
00
00
ENDCHAR
STARTCHAR 63
ENCODING    99
SWIDTH 480 0
DWIDTH 8 0
BBX 8 16 0 -2
BITMAP
00
00
00
00
00
00
1c
22
40
40
40
40
22
1c
00
00
ENDCHAR
STARTCHAR 64
ENCODING   100
SWIDTH 480 0
DWIDTH 8 0
BBX 8 16 0 -2
BITMAP
00
04
04
04
04
04
34
4c
84
84
84
84
4c
34
00
00
ENDCHAR
STARTCHAR 65
ENCODING   101
SWIDTH 480 0
DWIDTH 8 0
BBX 8 16 0 -2
BITMAP
00
00
00
00
00
00
38
44
82
fe
80
80
42
3c
00
00
ENDCHAR
STARTCHAR 66
ENCODING   102
SWIDTH 480 0
DWIDTH 8 0
BBX 8 16 0 -2
BITMAP
00
0c
12
10
10
10
7c
10
10
10
10
10
10
10
00
00
ENDCHAR
STARTCHAR 67
ENCODING   103
SWIDTH 480 0
DWIDTH 8 0
BBX 8 16 0 -2
BITMAP
00
00
00
00
00
00
3a
46
82
82
82
46
3a
02
44
38
ENDCHAR
STARTCHAR 68
ENCODING   104
SWIDTH 480 0
DWIDTH 8 0
BBX 8 16 0 -2
BITMAP
00
40
40
40
40
40
58
64
42
42
42
42
42
42
00
00
ENDCHAR
STARTCHAR 69
ENCODING   105
SWIDTH 480 0
DWIDTH 8 0
BBX 8 16 0 -2
BITMAP
00
00
10
10
00
00
30
10
10
10
10
10
10
38
00
00
ENDCHAR
STARTCHAR 6a
ENCODING   106
SWIDTH 480 0
DWIDTH 8 0
BBX 8 16 0 -2
BITMAP
00
00
08
08
00
00
18
08
08
08
08
08
08
48
48
30
ENDCHAR
STARTCHAR 6b
ENCODING   107
SWIDTH 480 0
DWIDTH 8 0
BBX 8 16 0 -2
BITMAP
00
40
40
40
40
40
42
44
48
50
70
48
44
42
00
00
ENDCHAR
STARTCHAR 6c
ENCODING   108
SWIDTH 480 0
DWIDTH 8 0
BBX 8 16 0 -2
BITMAP
00
30
10
10
10
10
10
10
10
10
10
10
10
10
00
00
ENDCHAR
STARTCHAR 6d
ENCODING   109
SWIDTH 480 0
DWIDTH 8 0
BBX 8 16 0 -2
BITMAP
00
00
00
00
00
00
ec
92
92
92
92
92
92
92
00
00
ENDCHAR
STARTCHAR 6e
ENCODING   110
SWIDTH 480 0
DWIDTH 8 0
BBX 8 16 0 -2
BITMAP
00
00
00
00
00
00
5c
62
42
42
42
42
42
42
00
00
ENDCHAR
STARTCHAR 6f
ENCODING   111
SWIDTH 480 0
DWIDTH 8 0
BBX 8 16 0 -2
BITMAP
00
00
00
00
00
00
38
44
82
82
82
82
44
38
00
00
ENDCHAR
STARTCHAR 70
ENCODING   112
SWIDTH 480 0
DWIDTH 8 0
BBX 8 16 0 -2
BITMAP
00
00
00
00
00
00
58
64
42
42
42
64
58
40
40
40
ENDCHAR
STARTCHAR 71
ENCODING   113
SWIDTH 480 0
DWIDTH 8 0
BBX 8 16 0 -2
BITMAP
00
00
00
00
00
00
34
4c
84
84
84
4c
34
04
04
04
ENDCHAR
STARTCHAR 72
ENCODING   114
SWIDTH 480 0
DWIDTH 8 0
BBX 8 16 0 -2
BITMAP
00
00
00
00
00
00
2c
32
20
20
20
20
20
20
00
00
ENDCHAR
STARTCHAR 73
ENCODING   115
SWIDTH 480 0
DWIDTH 8 0
BBX 8 16 0 -2
BITMAP
00
00
00
00
00
00
3c
42
40
30
0c
02
42
3c
00
00
ENDCHAR
STARTCHAR 74
ENCODING   116
SWIDTH 480 0
DWIDTH 8 0
BBX 8 16 0 -2
BITMAP
00
20
20
20
20
20
70
20
20
20
20
20
24
18
00
00
ENDCHAR
STARTCHAR 75
ENCODING   117
SWIDTH 480 0
DWIDTH 8 0
BBX 8 16 0 -2
BITMAP
00
00
00
00
00
00
84
84
84
84
84
84
8c
74
00
00
ENDCHAR
STARTCHAR 76
ENCODING   118
SWIDTH 480 0
DWIDTH 8 0
BBX 8 16 0 -2
BITMAP
00
00
00
00
00
00
82
82
82
82
82
44
28
10
00
00
ENDCHAR
STARTCHAR 77
ENCODING   119
SWIDTH 480 0
DWIDTH 8 0
BBX 8 16 0 -2
BITMAP
00
00
00
00
00
00
82
82
82
92
92
aa
44
44
00
00
ENDCHAR
STARTCHAR 78
ENCODING   120
SWIDTH 480 0
DWIDTH 8 0
BBX 8 16 0 -2
BITMAP
00
00
00
00
00
00
82
44
28
10
10
28
44
82
00
00
ENDCHAR
STARTCHAR 79
ENCODING   121
SWIDTH 480 0
DWIDTH 8 0
BBX 8 16 0 -2
BITMAP
00
00
00
00
00
00
42
42
42
42
42
22
14
08
10
60
ENDCHAR
STARTCHAR 7a
ENCODING   122
SWIDTH 480 0
DWIDTH 8 0
BBX 8 16 0 -2
BITMAP
00
00
00
00
00
00
7e
02
04
08
10
20
40
7e
00
00
ENDCHAR
STARTCHAR 7b
ENCODING   123
SWIDTH 480 0
DWIDTH 8 0
BBX 8 16 0 -2
BITMAP
00
0c
10
10
10
10
10
20
10
10
10
10
10
0c
00
00
ENDCHAR
STARTCHAR 7c
ENCODING   124
SWIDTH 480 0
DWIDTH 8 0
BBX 8 16 0 -2
BITMAP
00
00
18
18
18
18
18
18
18
18
18
18
18
18
00
00
ENDCHAR
STARTCHAR 7d
ENCODING   125
SWIDTH 480 0
DWIDTH 8 0
BBX 8 16 0 -2
BITMAP
00
30
08
08
08
08
08
04
08
08
08
08
08
30
00
00
ENDCHAR
STARTCHAR 7e
ENCODING   126
SWIDTH 480 0
DWIDTH 8 0
BBX 8 16 0 -2
BITMAP
00
fe
00
00
00
00
00
00
00
00
00
00
00
00
00
00
ENDCHAR
STARTCHAR 7f
ENCODING   127
SWIDTH 480 0
DWIDTH 8 0
BBX 8 16 0 -2
BITMAP
00
00
00
00
00
00
00
00
00
00
00
00
00
00
00
00
ENDCHAR
STARTCHAR a0
ENCODING   160
SWIDTH 480 0
DWIDTH 8 0
BBX 8 16 0 -2
BITMAP
00
00
00
00
00
00
00
00
00
00
00
00
00
00
00
00
ENDCHAR
STARTCHAR a1
ENCODING   161
SWIDTH 480 0
DWIDTH 8 0
BBX 8 16 0 -2
BITMAP
00
00
00
00
00
00
00
00
00
00
18
24
24
18
00
00
ENDCHAR
STARTCHAR a2
ENCODING   162
SWIDTH 480 0
DWIDTH 8 0
BBX 8 16 0 -2
BITMAP
00
1f
10
10
10
10
10
10
10
10
00
00
00
00
00
00
ENDCHAR
STARTCHAR a3
ENCODING   163
SWIDTH 480 0
DWIDTH 8 0
BBX 8 16 0 -2
BITMAP
00
00
00
00
00
04
04
04
04
04
04
04
04
3c
00
00
ENDCHAR
STARTCHAR a4
ENCODING   164
SWIDTH 480 0
DWIDTH 8 0
BBX 8 16 0 -2
BITMAP
00
00
00
00
00
00
00
00
00
00
00
40
20
10
00
00
ENDCHAR
STARTCHAR a5
ENCODING   165
SWIDTH 480 0
DWIDTH 8 0
BBX 8 16 0 -2
BITMAP
00
00
00
00
00
00
00
18
18
00
00
00
00
00
00
00
ENDCHAR
STARTCHAR a6
ENCODING   166
SWIDTH 480 0
DWIDTH 8 0
BBX 8 16 0 -2
BITMAP
00
00
fe
02
02
02
fe
02
02
04
04
08
10
60
00
00
ENDCHAR
STARTCHAR a7
ENCODING   167
SWIDTH 480 0
DWIDTH 8 0
BBX 8 16 0 -2
BITMAP
00
00
00
00
00
00
00
fe
02
12
1c
10
20
40
00
00
ENDCHAR
STARTCHAR a8
ENCODING   168
SWIDTH 480 0
DWIDTH 8 0
BBX 8 16 0 -2
BITMAP
00
00
00
00
00
00
02
04
08
38
c8
08
08
08
00
00
ENDCHAR
STARTCHAR a9
ENCODING   169
SWIDTH 480 0
DWIDTH 8 0
BBX 8 16 0 -2
BITMAP
00
00
00
00
00
00
10
fe
82
82
02
04
08
30
00
00
ENDCHAR
STARTCHAR aa
ENCODING   170
SWIDTH 480 0
DWIDTH 8 0
BBX 8 16 0 -2
BITMAP
00
00
00
00
00
00
00
7c
10
10
10
10
10
fe
00
00
ENDCHAR
STARTCHAR ab
ENCODING   171
SWIDTH 480 0
DWIDTH 8 0
BBX 8 16 0 -2
BITMAP
00
00
00
00
00
00
08
08
fe
08
18
28
48
88
00
00
ENDCHAR
STARTCHAR ac
ENCODING   172
SWIDTH 480 0
DWIDTH 8 0
BBX 8 16 0 -2
BITMAP
00
00
00
00
00
00
20
20
fe
22
24
20
20
20
00
00
ENDCHAR
STARTCHAR ad
ENCODING   173
SWIDTH 480 0
DWIDTH 8 0
BBX 8 16 0 -2
BITMAP
00
00
00
00
00
00
00
78
08
08
08
08
08
fe
00
00
ENDCHAR
STARTCHAR ae
ENCODING   174
SWIDTH 480 0
DWIDTH 8 0
BBX 8 16 0 -2
BITMAP
00
00
00
00
00
00
00
7e
02
02
3e
02
02
7e
00
00
ENDCHAR
STARTCHAR af
ENCODING   175
SWIDTH 480 0
DWIDTH 8 0
BBX 8 16 0 -2
BITMAP
00
00
00
00
00
00
00
92
92
92
02
04
08
30
00
00
ENDCHAR
STARTCHAR b0
ENCODING   176
SWIDTH 480 0
DWIDTH 8 0
BBX 8 16 0 -2
BITMAP
00
00
00
00
00
00
00
00
fe
00
00
00
00
00
00
00
ENDCHAR
STARTCHAR b1
ENCODING   177
SWIDTH 480 0
DWIDTH 8 0
BBX 8 16 0 -2
BITMAP
00
00
fe
02
02
12
12
12
1c
10
10
10
20
c0
00
00
ENDCHAR
STARTCHAR b2
ENCODING   178
SWIDTH 480 0
DWIDTH 8 0
BBX 8 16 0 -2
BITMAP
00
02
02
04
04
08
38
c8
08
08
08
08
08
08
00
00
ENDCHAR
STARTCHAR b3
ENCODING   179
SWIDTH 480 0
DWIDTH 8 0
BBX 8 16 0 -2
BITMAP
00
10
10
fe
82
82
82
02
02
02
02
02
04
38
00
00
ENDCHAR
STARTCHAR b4
ENCODING   180
SWIDTH 480 0
DWIDTH 8 0
BBX 8 16 0 -2
BITMAP
00
00
7c
10
10
10
10
10
10
10
10
10
10
fe
00
00
ENDCHAR
STARTCHAR b5
ENCODING   181
SWIDTH 480 0
DWIDTH 8 0
BBX 8 16 0 -2
BITMAP
00
08
08
08
fe
08
18
18
28
28
48
48
88
08
00
00
ENDCHAR
STARTCHAR b6
ENCODING   182
SWIDTH 480 0
DWIDTH 8 0
BBX 8 16 0 -2
BITMAP
00
20
20
20
fe
22
22
22
22
22
22
22
42
8c
00
00
ENDCHAR
STARTCHAR b7
ENCODING   183
SWIDTH 480 0
DWIDTH 8 0
BBX 8 16 0 -2
BITMAP
00
10
10
fe
10
10
10
10
fe
10
10
10
10
10
00
00
ENDCHAR
STARTCHAR b8
ENCODING   184
SWIDTH 480 0
DWIDTH 8 0
BBX 8 16 0 -2
BITMAP
00
20
3e
22
42
42
82
02
04
04
08
08
10
20
00
00
ENDCHAR
STARTCHAR b9
ENCODING   185
SWIDTH 480 0
DWIDTH 8 0
BBX 8 16 0 -2
BITMAP
00
40
40
7e
48
48
88
08
08
08
08
08
08
30
00
00
ENDCHAR
STARTCHAR ba
ENCODING   186
SWIDTH 480 0
DWIDTH 8 0
BBX 8 16 0 -2
BITMAP
00
00
fe
02
02
02
02
02
02
02
02
02
02
fe
00
00
ENDCHAR
STARTCHAR bb
ENCODING   187
SWIDTH 480 0
DWIDTH 8 0
BBX 8 16 0 -2
BITMAP
00
44
44
fe
44
44
44
04
04
04
04
04
08
30
00
00
ENDCHAR
STARTCHAR bc
ENCODING   188
SWIDTH 480 0
DWIDTH 8 0
BBX 8 16 0 -2
BITMAP
00
c0
20
02
02
c2
22
02
04
04
08
08
10
e0
00
00
ENDCHAR
STARTCHAR bd
ENCODING   189
SWIDTH 480 0
DWIDTH 8 0
BBX 8 16 0 -2
BITMAP
00
00
fe
02
02
04
04
08
08
14
14
22
42
82
00
00
ENDCHAR
STARTCHAR be
ENCODING   190
SWIDTH 480 0
DWIDTH 8 0
BBX 8 16 0 -2
BITMAP
00
40
40
fe
42
42
42
44
40
40
40
40
40
3e
00
00
ENDCHAR
STARTCHAR bf
ENCODING   191
SWIDTH 480 0
DWIDTH 8 0
BBX 8 16 0 -2
BITMAP
00
02
42
42
42
42
22
02
04
04
08
08
10
60
00
00
ENDCHAR
STARTCHAR c0
ENCODING   192
SWIDTH 480 0
DWIDTH 8 0
BBX 8 16 0 -2
BITMAP
00
20
3e
22
42
42
a2
12
0c
04
08
08
10
20
00
00
ENDCHAR
STARTCHAR c1
ENCODING   193
SWIDTH 480 0
DWIDTH 8 0
BBX 8 16 0 -2
BITMAP
00
02
04
78
08
08
08
fe
08
08
08
08
10
60
00
00
ENDCHAR
STARTCHAR c2
ENCODING   194
SWIDTH 480 0
DWIDTH 8 0
BBX 8 16 0 -2
BITMAP
00
00
92
92
92
92
92
02
02
02
04
04
08
30
00
00
ENDCHAR
STARTCHAR c3
ENCODING   195
SWIDTH 480 0
DWIDTH 8 0
BBX 8 16 0 -2
BITMAP
00
00
7c
00
00
fe
08
08
08
08
08
08
10
60
00
00
ENDCHAR
STARTCHAR c4
ENCODING   196
SWIDTH 480 0
DWIDTH 8 0
BBX 8 16 0 -2
BITMAP
00
40
40
40
40
40
60
50
48
44
40
40
40
40
00
00
ENDCHAR
STARTCHAR c5
ENCODING   197
SWIDTH 480 0
DWIDTH 8 0
BBX 8 16 0 -2
BITMAP
00
10
10
10
fe
10
10
10
10
10
10
10
20
c0
00
00
ENDCHAR
STARTCHAR c6
ENCODING   198
SWIDTH 480 0
DWIDTH 8 0
BBX 8 16 0 -2
BITMAP
00
00
7c
00
00
00
00
00
00
00
00
00
00
fe
00
00
ENDCHAR
STARTCHAR c7
ENCODING   199
SWIDTH 480 0
DWIDTH 8 0
BBX 8 16 0 -2
BITMAP
00
00
fe
02
02
04
04
48
28
10
18
24
42
80
00
00
ENDCHAR
STARTCHAR c8
ENCODING   200
SWIDTH 480 0
DWIDTH 8 0
BBX 8 16 0 -2
BITMAP
00
10
10
fe
02
04
08
18
34
d2
10
10
10
10
00
00
ENDCHAR
STARTCHAR c9
ENCODING   201
SWIDTH 480 0
DWIDTH 8 0
BBX 8 16 0 -2
BITMAP
00
00
02
02
02
02
02
04
04
08
08
10
20
c0
00
00
ENDCHAR
STARTCHAR ca
ENCODING   202
SWIDTH 480 0
DWIDTH 8 0
BBX 8 16 0 -2
BITMAP
00
10
08
04
42
42
42
42
42
42
42
42
42
82
00
00
ENDCHAR
STARTCHAR cb
ENCODING   203
SWIDTH 480 0
DWIDTH 8 0
BBX 8 16 0 -2
BITMAP
00
00
80
80
80
86
98
e0
80
80
80
80
80
7e
00
00
ENDCHAR
STARTCHAR cc
ENCODING   204
SWIDTH 480 0
DWIDTH 8 0
BBX 8 16 0 -2
BITMAP
00
00
fe
02
02
02
04
04
08
08
10
10
20
40
00
00
ENDCHAR
STARTCHAR cd
ENCODING   205
SWIDTH 480 0
DWIDTH 8 0
BBX 8 16 0 -2
BITMAP
00
00
20
20
20
50
50
50
88
88
04
04
02
02
00
00
ENDCHAR
STARTCHAR ce
ENCODING   206
SWIDTH 480 0
DWIDTH 8 0
BBX 8 16 0 -2
BITMAP
00
10
10
10
fe
10
10
10
54
52
92
10
10
10
00
00
ENDCHAR
STARTCHAR cf
ENCODING   207
SWIDTH 480 0
DWIDTH 8 0
BBX 8 16 0 -2
BITMAP
00
00
fe
02
02
02
02
04
04
48
30
10
08
04
00
00
ENDCHAR
STARTCHAR d0
ENCODING   208
SWIDTH 480 0
DWIDTH 8 0
BBX 8 16 0 -2
BITMAP
00
00
60
18
06
00
60
18
06
00
00
60
18
06
00
00
ENDCHAR
STARTCHAR d1
ENCODING   209
SWIDTH 480 0
DWIDTH 8 0
BBX 8 16 0 -2
BITMAP
00
00
10
10
10
20
20
40
40
84
82
82
fe
02
00
00
ENDCHAR
STARTCHAR d2
ENCODING   210
SWIDTH 480 0
DWIDTH 8 0
BBX 8 16 0 -2
BITMAP
00
00
04
04
04
04
24
18
08
14
12
20
40
80
00
00
ENDCHAR
STARTCHAR d3
ENCODING   211
SWIDTH 480 0
DWIDTH 8 0
BBX 8 16 0 -2
BITMAP
00
00
7c
20
20
20
fe
20
20
20
20
20
20
1e
00
00
ENDCHAR
STARTCHAR d4
ENCODING   212
SWIDTH 480 0
DWIDTH 8 0
BBX 8 16 0 -2
BITMAP
00
20
20
20
fe
22
22
24
28
20
20
20
20
20
00
00
ENDCHAR
STARTCHAR d5
ENCODING   213
SWIDTH 480 0
DWIDTH 8 0
BBX 8 16 0 -2
BITMAP
00
00
78
08
08
08
08
08
08
08
08
08
08
fe
00
00
ENDCHAR
STARTCHAR d6
ENCODING   214
SWIDTH 480 0
DWIDTH 8 0
BBX 8 16 0 -2
BITMAP
00
00
fe
02
02
02
02
7e
02
02
02
02
02
fe
00
00
ENDCHAR
STARTCHAR d7
ENCODING   215
SWIDTH 480 0
DWIDTH 8 0
BBX 8 16 0 -2
BITMAP
00
00
7c
00
00
fe
02
02
02
04
04
08
10
60
00
00
ENDCHAR
STARTCHAR d8
ENCODING   216
SWIDTH 480 0
DWIDTH 8 0
BBX 8 16 0 -2
BITMAP
00
04
44
44
44
44
44
44
44
04
04
04
08
30
00
00
ENDCHAR
STARTCHAR d9
ENCODING   217
SWIDTH 480 0
DWIDTH 8 0
BBX 8 16 0 -2
BITMAP
00
10
10
50
50
50
50
50
50
50
52
52
94
18
00
00
ENDCHAR
STARTCHAR da
ENCODING   218
SWIDTH 480 0
DWIDTH 8 0
BBX 8 16 0 -2
BITMAP
00
40
40
40
40
40
40
40
42
42
44
44
48
70
00
00
ENDCHAR
STARTCHAR db
ENCODING   219
SWIDTH 480 0
DWIDTH 8 0
BBX 8 16 0 -2
BITMAP
00
00
fe
82
82
82
82
82
82
82
82
82
82
fe
00
00
ENDCHAR
STARTCHAR dc
ENCODING   220
SWIDTH 480 0
DWIDTH 8 0
BBX 8 16 0 -2
BITMAP
00
00
fe
82
82
82
02
02
02
02
04
04
08
30
00
00
ENDCHAR
STARTCHAR dd
ENCODING   221
SWIDTH 480 0
DWIDTH 8 0
BBX 8 16 0 -2
BITMAP
00
00
00
e0
10
02
02
02
04
04
08
08
10
e0
00
00
ENDCHAR
STARTCHAR de
ENCODING   222
SWIDTH 480 0
DWIDTH 8 0
BBX 8 16 0 -2
BITMAP
00
48
24
24
00
00
00
00
00
00
00
00
00
00
00
00
ENDCHAR
STARTCHAR df
ENCODING   223
SWIDTH 480 0
DWIDTH 8 0
BBX 8 16 0 -2
BITMAP
00
30
48
48
30
00
00
00
00
00
00
00
00
00
00
00
ENDCHAR
ENDFONT
